<svg xmlns="http://www.w3.org/2000/svg" width="80" height="81" fill="none"><path fill="#ADADAD" d="M40 78.329a37.219 37.219 0 0 1-20.834-6.388 37.817 37.817 0 0 1-13.811-17.01A38.278 38.278 0 0 1 3.22 33.035a38.028 38.028 0 0 1 10.262-19.406A37.379 37.379 0 0 1 32.684 3.255a37.131 37.131 0 0 1 21.667 2.157 37.588 37.588 0 0 1 16.83 13.96A38.19 38.19 0 0 1 77.5 40.427c0 10.052-3.95 19.692-10.984 26.8-7.032 7.108-16.57 11.1-26.516 11.1ZM40 7.58a32.256 32.256 0 0 0-18.056 5.536 32.776 32.776 0 0 0-11.97 14.742 33.174 33.174 0 0 0-1.85 18.978 32.958 32.958 0 0 0 8.895 16.819 32.395 32.395 0 0 0 16.64 8.99 32.18 32.18 0 0 0 18.778-1.87 32.577 32.577 0 0 0 14.586-12.098 33.099 33.099 0 0 0 5.477-18.25c0-8.71-3.424-17.066-9.519-23.226-6.095-6.16-14.361-9.62-22.981-9.62Z"/><path fill="#ADADAD" d="M50.6 54.73 38.225 42.221a2.529 2.529 0 0 1-.725-1.794V20.214h5v19.178l11.65 11.75-3.55 3.587Z"/></svg>