<svg xmlns="http://www.w3.org/2000/svg" width="126" height="127" fill="none"><path fill="#ADADAD" d="m91.04 48.842 7.703-7.79c9.833 5.737 16.379 13.664 16.379 22.448 0 17.537-25.945 31.713-52.328 31.75a76.277 76.277 0 0 1-15.976-1.693l9.142-9.24a64.31 64.31 0 0 0 6.818.35h.01c-2.171 0-4.264-.334-6.232-.953l10.366-10.488a10.588 10.588 0 0 0 5.495-5.55l10.36-10.484a21.395 21.395 0 0 1 .67 9.773 21.293 21.293 0 0 1-3.754 9.03 20.995 20.995 0 0 1-7.372 6.354 20.744 20.744 0 0 1-9.412 2.318c22.213-.08 41.747-11.557 41.747-21.167 0-4.99-5.348-10.51-13.616-14.658ZM42.365 68.13a21.399 21.399 0 0 1 .03-9.392 21.267 21.267 0 0 1 4.045-8.455 20.975 20.975 0 0 1 7.264-5.852 20.74 20.74 0 0 1 9.053-2.098C40.685 42.254 20.931 53.86 20.931 63.5c0 4.741 4.73 9.933 12.177 13.991l-7.63 7.705C16.4 79.523 10.466 71.887 10.466 63.5c0-17.537 26.08-31.84 52.328-31.75 4.782.016 9.56.497 14.175 1.386l-9.298 9.398a69.602 69.602 0 0 0-4.605-.2c1.475.02 2.915.195 4.306.507L42.36 68.131h.005Zm68.005-53.805a5.323 5.323 0 0 1 1.533 3.74 5.323 5.323 0 0 1-1.533 3.742l-88.8 89.8a5.186 5.186 0 0 1-7.464.07 5.292 5.292 0 0 1-1.145-1.737 5.343 5.343 0 0 1 .033-4.092 5.298 5.298 0 0 1 1.171-1.719l88.801-89.8a5.188 5.188 0 0 1 5.706-1.149 5.216 5.216 0 0 1 1.698 1.145Z"/></svg>