<svg xmlns="http://www.w3.org/2000/svg" width="81" height="81" fill="none"><path fill="#B0B0B0" d="M63.17 36.83c0-.19.032-.38.032-.57 0-10.172-8.353-18.541-18.478-18.541-7.293 0-13.574 4.414-16.516 10.6a9.31 9.31 0 0 0-4.24-1.013c-4.683 0-8.559 3.75-9.318 8.226-5.57 1.93-9.588 6.993-9.588 13.258 0 7.878 6.344 14.491 14.175 14.491h43.728c7.119 0 12.972-6.154 12.972-13.336 0-7.214-5.6-13.1-12.767-13.115Zm-.284 23.857-.507.063H19.364c-6.47 0-11.739-5.521-11.739-12.04 0-5.046 3.196-9.238 7.942-10.884l1.33-.474.236-1.392c.57-3.418 3.497-6.218 6.945-6.218 1.092 0 2.168.253 3.149.76l2.136 1.075 1.028-2.167c2.626-5.521 8.242-9.207 14.301-9.207 8.749 0 15.963 6.976 15.963 15.772 0 2.105-.032 3.212-.032 3.212l2.405.016c5.806.079 10.378 4.825 10.378 10.663 0 5.837-4.714 10.79-10.52 10.82Z"/></svg>