<svg xmlns="http://www.w3.org/2000/svg" width="90" height="90" fill="none"><path fill="#ADADAD" d="M73.125 82.532v-23.78h-22.5v27.977h26.719c-2.326 0-4.219-1.883-4.219-4.197ZM54.844 64.347h5.625v5.595h-5.625v-5.595Zm15.468 17.486H53.439v-1.4h16.874v1.4Zm0-5.596H53.439v-1.399h16.874v1.4Zm0-5.595h-7.03v-1.399h7.03v1.399Zm0-5.596h-7.03v-1.398h7.03v1.398Z"/><path fill="#ADADAD" d="M80.86 82.532V73.44h-7.032v9.092c0 1.93 1.575 3.497 3.516 3.497a3.507 3.507 0 0 0 3.515-3.497ZM45.703 52.448c3.1-.018 6.124-.153 8.983-.398a34.068 34.068 0 0 0-.94-7.052c-2.568.193-5.271.298-8.043.314v7.136Zm0-13.589v5.055c2.634-.015 5.203-.113 7.66-.29-.59-2.001-1.365-3.877-2.316-5.573-1.567.472-3.39.753-5.344.808Zm-31.64-20.674c0 4.636 3.777 8.393 8.437 8.393 4.66 0 8.438-3.757 8.438-8.393h-2.73l-4.219-8.393h19.605V35.04a18.32 18.32 0 0 0-5.416 1.253c1.802.747 4.225 1.188 6.822 1.188 2.597 0 5.02-.44 6.822-1.188a18.358 18.358 0 0 0-5.416-1.253V9.792h19.605l-4.219 8.393h-2.73c0 4.636 3.778 8.393 8.438 8.393s8.438-3.757 8.438-8.393h-2.73l-4.219-8.393h1.323V6.994H19.688v2.798h1.324l-4.219 8.393h-2.73Zm57.573 0h-8.272L67.5 9.957l4.136 8.228ZM22.5 9.957l4.136 8.228h-8.272L22.5 9.957Z"/><path fill="#ADADAD" d="M45 6.994a2.805 2.805 0 0 0 2.813-2.797A2.805 2.805 0 0 0 45 1.399a2.805 2.805 0 0 0-2.813 2.798A2.805 2.805 0 0 0 45 6.994ZM35.59 60.82c2.79.23 5.727.357 8.707.374v-7.345c-3.305-.02-6.532-.168-9.565-.442.018 2.548.316 5.045.859 7.412Zm19.566-15.94a35.54 35.54 0 0 1 .932 7.04 76.993 76.993 0 0 0 7.039-1.014 17.993 17.993 0 0 0-2.249-6.742c-1.799.289-3.7.535-5.722.715Zm7.604 12.473a17.79 17.79 0 0 0 .521-4.197c0-.285-.03-.562-.043-.845a79.36 79.36 0 0 1-7.117 1.012 35.627 35.627 0 0 1-.254 4.028l6.894.002Zm-9.29-20.305c-.34.187-.7.364-1.084.525.992 1.813 1.8 3.81 2.406 5.934 1.85-.16 3.598-.38 5.283-.63a18.34 18.34 0 0 0-6.605-5.829Zm-4.251 25.465c-1.162.04-2.333.072-3.516.079v4.86c1.238.035 2.415.17 3.516.378v-5.317Zm-22.5-9.357c0 2.373.47 4.632 1.3 6.71 1.895.33 3.945.603 6.104.815a35.82 35.82 0 0 1-.802-7.418 78.176 78.176 0 0 1-6.56-.952c-.013.283-.042.561-.042.845Zm.154-2.248a76.15 76.15 0 0 0 6.485.954c.085-2.416.399-4.782.94-7.03a84.038 84.038 0 0 1-5.18-.66 17.977 17.977 0 0 0-2.245 6.736Zm9.657 18.356c.206-.115.407-.23.632-.336-1.15-2.055-2.063-4.352-2.706-6.808a87.48 87.48 0 0 1-5.735-.717 18.294 18.294 0 0 0 7.81 7.861Zm7.767-1.81v-4.861c-2.85-.017-5.657-.134-8.343-.346.62 2.223 1.463 4.303 2.521 6.162 1.666-.563 3.669-.895 5.822-.955Zm0-22.141c-2.963-.017-5.85-.136-8.59-.357-.555 2.245-.87 4.622-.949 7.049 3.018.276 6.238.424 9.537.443l.002-7.135ZM29.922 42.88a93.43 93.43 0 0 0 4.75.565c.625-2.175 1.459-4.216 2.49-6.06-.224-.104-.426-.22-.632-.335a18.318 18.318 0 0 0-6.608 5.83Zm14.375-4.021c-2.153-.06-4.156-.392-5.82-.956-.982 1.724-1.778 3.639-2.384 5.682 2.627.205 5.384.307 8.205.322l-.001-5.048Zm4.922 19.893c0-.774.628-1.4 1.406-1.4h3.83c.157-1.28.245-2.581.255-3.9-2.871.243-5.902.379-9.007.397v7.345a113.01 113.01 0 0 0 3.516-.083v-2.36Zm0 12.074v-1.565A20.971 20.971 0 0 0 45 68.833c-2.597 0-5.02.44-6.822 1.188A18.33 18.33 0 0 0 45 71.34c1.456 0 2.863-.191 4.219-.514Z"/></svg>