<svg xmlns="http://www.w3.org/2000/svg" width="90" height="90" fill="none"><path fill="#ADADAD" d="M62.145 10.262c-6.088-5.017-14.102-7.014-21.983-5.48-10.61 2.066-19.132 11.023-20.723 21.782-1.298 8.78 1.821 17.549 8.344 23.457 2.939 2.662 4.712 6.496 4.994 10.797.005.079.02.154.037.228v13.488c0 .742.602 1.345 1.346 1.345h1.34c.546 3.91 3.42 6.903 6.88 6.903h6.108c3.461 0 6.334-2.993 6.88-6.903h1.34c.743 0 1.346-.603 1.346-1.345V60.822c0-4.002 1.818-7.866 5.118-10.881a26.315 26.315 0 0 0 8.554-19.381 26.216 26.216 0 0 0-9.58-20.298ZM40.678 35.793H38.61a2.07 2.07 0 0 1-2.068-2.067 2.07 2.07 0 0 1 2.068-2.067 2.07 2.07 0 0 1 2.067 2.067v2.067Zm9.514-2.067a2.07 2.07 0 0 1 2.068-2.067 2.07 2.07 0 0 1 2.068 2.067 2.07 2.07 0 0 1-2.068 2.067h-2.065l-.003-2.067Zm-.81 28.345h5.982V73.19h-1.231l-.01-.001H35.507V62.072H48.39m-5.022-2.69V38.483h4.14l.031 20.898h-4.17Zm5.12 20.71h-6.107c-2.007 0-3.693-1.797-4.159-4.212h14.424c-.465 2.415-2.15 4.213-4.158 4.213Zm12.87-32.136c-3.473 3.172-5.528 7.187-5.913 11.426h-5.216l-.03-20.898h2.061a4.763 4.763 0 0 0 4.758-4.757 4.763 4.763 0 0 0-4.758-4.758 4.764 4.764 0 0 0-4.758 4.76l.002 2.065h-4.136v-2.067a4.763 4.763 0 0 0-4.758-4.758 4.763 4.763 0 0 0-4.757 4.758 4.763 4.763 0 0 0 4.758 4.758h2.067V59.38h-5.356c-.57-4.489-2.569-8.489-5.734-11.354-5.854-5.304-8.654-13.18-7.488-21.07 1.427-9.65 9.065-17.682 18.575-19.534 7.092-1.38 14.294.41 19.757 4.915a23.538 23.538 0 0 1 8.603 18.223 23.612 23.612 0 0 1-7.677 17.394Z"/></svg>