<svg xmlns="http://www.w3.org/2000/svg" width="749" height="222" fill="none"><g filter="url(#a)"><ellipse cx="374.5" cy="186" fill="#D9D9D9" rx="355.5" ry="17"/></g><path fill="#D8D8D8" d="M112.403 82.164v3.955H40.626v-3.955h71.777Zm-69.8-49.805V139h-3.955V32.36h3.955Zm72.071 0V139h-3.955V32.36h3.955Zm104.809 45.337v15.967c0 6.934-.952 13.281-2.856 19.043-1.856 5.713-4.541 10.645-8.057 14.795-3.466 4.15-7.666 7.349-12.597 9.595-4.932 2.246-10.474 3.369-16.626 3.369-6.104 0-11.646-1.123-16.626-3.369-4.932-2.246-9.18-5.445-12.744-9.595-3.516-4.15-6.226-9.082-8.13-14.795-1.856-5.762-2.784-12.109-2.784-19.043V77.696c0-6.982.928-13.33 2.784-19.043 1.904-5.713 4.614-10.644 8.13-14.795 3.515-4.15 7.739-7.348 12.67-9.594 4.932-2.246 10.45-3.37 16.553-3.37 6.153 0 11.695 1.124 16.626 3.37 4.932 2.246 9.155 5.444 12.671 9.594 3.565 4.15 6.274 9.082 8.13 14.795 1.904 5.713 2.856 12.06 2.856 19.043Zm-3.955 15.967V77.55c0-6.25-.805-11.963-2.417-17.139-1.611-5.224-3.979-9.741-7.104-13.55-3.125-3.808-6.934-6.762-11.426-8.862-4.492-2.1-9.619-3.15-15.381-3.15-5.713 0-10.815 1.05-15.307 3.15a32.434 32.434 0 0 0-11.353 8.862c-3.076 3.809-5.42 8.326-7.031 13.55-1.612 5.176-2.417 10.889-2.417 17.139v16.113c0 6.299.805 12.061 2.417 17.285 1.66 5.225 4.028 9.741 7.104 13.55 3.125 3.809 6.934 6.763 11.426 8.862 4.492 2.1 9.595 3.15 15.308 3.15 5.761 0 10.864-1.05 15.307-3.15 4.492-2.099 8.277-5.053 11.353-8.862 3.125-3.809 5.493-8.325 7.104-13.55 1.612-5.224 2.417-10.986 2.417-17.285Zm63.868-7.324H246.29l-.146-3.955h27.246c6.445 0 11.84-.83 16.186-2.49 4.395-1.66 7.691-4.2 9.888-7.618s3.296-7.715 3.296-12.89c0-5.127-1.172-9.4-3.516-12.818-2.295-3.418-5.737-5.981-10.327-7.69-4.541-1.71-10.205-2.563-16.992-2.563h-24.097V139h-3.955V32.36h28.052c5.371 0 10.205.537 14.502 1.61 4.297 1.075 7.959 2.735 10.986 4.981 3.027 2.246 5.347 5.103 6.958 8.57 1.611 3.417 2.417 7.47 2.417 12.158 0 4.394-.83 8.35-2.49 11.865-1.611 3.516-3.98 6.372-7.105 8.57-3.125 2.197-6.982 3.54-11.572 4.028l-6.225 2.197ZM278.663 139h-32.519l1.245-3.955h31.274c6.006 0 11.157-1.001 15.454-3.003 4.346-2.002 7.691-4.883 10.034-8.643 2.344-3.808 3.516-8.349 3.516-13.623 0-4.101-1.05-7.934-3.149-11.499-2.051-3.564-5.176-6.445-9.375-8.642-4.2-2.198-9.449-3.296-15.747-3.296H262.11l.147-3.955h25.268l.293 1.391c4.493.537 8.521 2.027 12.085 4.468 3.614 2.442 6.47 5.542 8.57 9.302 2.099 3.711 3.149 7.739 3.149 12.085 0 6.299-1.416 11.645-4.248 16.04-2.783 4.346-6.641 7.666-11.572 9.961-4.932 2.246-10.645 3.369-17.139 3.369Zm131.25-61.304v15.967c0 6.934-.952 13.281-2.856 19.043-1.856 5.713-4.541 10.645-8.057 14.795a35.246 35.246 0 0 1-12.598 9.595c-4.931 2.246-10.473 3.369-16.626 3.369-6.103 0-11.645-1.123-16.626-3.369-4.931-2.246-9.179-5.445-12.744-9.595-3.515-4.15-6.225-9.082-8.13-14.795-1.855-5.762-2.783-12.109-2.783-19.043V77.696c0-6.982.928-13.33 2.783-19.043 1.905-5.713 4.615-10.644 8.13-14.795 3.516-4.15 7.74-7.348 12.671-9.594 4.932-2.246 10.449-3.37 16.553-3.37 6.152 0 11.694 1.124 16.626 3.37s9.155 5.444 12.671 9.594c3.564 4.15 6.274 9.082 8.13 14.795 1.904 5.713 2.856 12.06 2.856 19.043Zm-3.955 15.967V77.55c0-6.25-.806-11.963-2.417-17.139-1.611-5.224-3.979-9.741-7.104-13.55-3.125-3.808-6.934-6.762-11.426-8.862-4.492-2.1-9.619-3.15-15.381-3.15-5.713 0-10.816 1.05-15.308 3.15a32.44 32.44 0 0 0-11.352 8.862c-3.076 3.809-5.42 8.326-7.032 13.55-1.611 5.176-2.417 10.889-2.417 17.139v16.113c0 6.299.806 12.061 2.417 17.285 1.661 5.225 4.029 9.741 7.105 13.55 3.125 3.809 6.934 6.763 11.426 8.862 4.492 2.1 9.594 3.15 15.307 3.15 5.762 0 10.865-1.05 15.308-3.15 4.492-2.099 8.276-5.053 11.353-8.862 3.125-3.809 5.493-8.325 7.104-13.55 1.611-5.224 2.417-10.986 2.417-17.285Zm96.899 12.671h3.955c-.732 7.666-2.758 14.038-6.079 19.116-3.271 5.029-7.641 8.789-13.11 11.279-5.42 2.491-11.694 3.736-18.823 3.736-5.86 0-11.157-1.123-15.894-3.369-4.736-2.246-8.813-5.445-12.231-9.595-3.369-4.15-5.957-9.082-7.764-14.795-1.807-5.762-2.71-12.109-2.71-19.043V77.696c0-6.982.903-13.33 2.71-19.043 1.807-5.713 4.395-10.644 7.764-14.795 3.418-4.15 7.495-7.348 12.231-9.594 4.737-2.246 10.034-3.37 15.894-3.37 7.129 0 13.403 1.246 18.823 3.736 5.469 2.49 9.839 6.25 13.11 11.28 3.321 5.029 5.347 11.352 6.079 18.969h-3.955c-.732-6.543-2.514-12.036-5.346-16.48-2.783-4.443-6.592-7.812-11.426-10.107-4.785-2.295-10.547-3.442-17.285-3.442-5.176 0-9.888 1.025-14.136 3.076-4.248 2.002-7.91 4.883-10.986 8.642-3.028 3.76-5.371 8.252-7.032 13.477-1.66 5.224-2.49 11.06-2.49 17.505v16.113c0 6.445.83 12.305 2.49 17.578 1.661 5.274 4.004 9.79 7.032 13.55 3.076 3.76 6.738 6.665 10.986 8.716 4.248 2.002 8.96 3.003 14.136 3.003 6.592 0 12.304-1.05 17.138-3.15 4.834-2.148 8.667-5.444 11.5-9.887 2.88-4.493 4.687-10.205 5.419-17.139Zm58.667-73.975V139h-3.955V32.36h3.955Zm38.819 0v3.956h-81.592v-3.956h81.592Zm22.632 99.683 68.921-99.683h3.955V139h-3.955V39.098L622.975 139h-3.955V32.36h3.955v99.682Z"/><defs><filter id="a" width="749" height="72" x="0" y="150" color-interpolation-filters="sRGB" filterUnits="userSpaceOnUse"><feFlood flood-opacity="0" result="BackgroundImageFix"/><feBlend in="SourceGraphic" in2="BackgroundImageFix" result="shape"/><feGaussianBlur result="effect1_foregroundBlur_9_175" stdDeviation="9.5"/></filter></defs></svg>