<svg xmlns="http://www.w3.org/2000/svg" width="62" height="62" fill="none"><path fill="#8E8D8D" fill-rule="evenodd" d="M58.694 15.984c.431-1.366 0-2.358-1.907-2.358h-6.342c-1.6 0-2.338.869-2.77 1.799 0 0-3.261 7.944-7.817 13.094-1.477 1.49-2.154 1.986-2.955 1.986-.43 0-.985-.497-.985-1.861V15.92c0-1.613-.492-2.357-1.847-2.357h-9.973c-.986 0-1.601.744-1.601 1.489 0 1.551 2.278 1.924 2.523 6.268v9.438c0 2.048-.363 2.422-1.17 2.422-2.154 0-7.386-8.006-10.525-17.128-.61-1.806-1.23-2.49-2.831-2.49H4.092c-1.847 0-2.154.869-2.154 1.8 0 1.676 2.154 10.115 10.033 21.285 5.233 7.629 12.681 11.729 19.391 11.729 4.064 0 4.556-.931 4.556-2.483v-5.771c0-1.861.369-2.171 1.662-2.171.923 0 2.586.495 6.34 4.157 4.31 4.344 5.048 6.33 7.45 6.33h6.34c1.846 0 2.709-.932 2.216-2.731-.554-1.8-2.647-4.406-5.356-7.508-1.478-1.736-3.694-3.66-4.37-4.592-.923-1.241-.678-1.738 0-2.854-.062 0 7.695-11.046 8.494-14.774" clip-rule="evenodd"/></svg>